<?xml version="1.0" encoding="UTF-8"?>
<svg version="1.1" viewBox="0 0 2048 1140" width="1020" height="568" xmlns="http://www.w3.org/2000/svg">
<path transform="translate(0)" d="m0 0h2048v1140h-2048z" fill="#FDFEFD"/>
<path transform="translate(1e3 96)" d="m0 0 1 2-7 19-5 21-2 16v27l3 25 6 25 7 21 9 20 12 23 14 24 24 44 15 28 14 28 13 31 7 21 5 21 4 26 1 10v39l-3 23-5 20-6 16 1 6 14 36 12 36 6 24 3 19 2 24v23l-3 24-6 24-10 24-9 16-14 20-10 11-7 8-9 9-11 9-16 13-19 13-14 9-21 10-19 6-19 4-19 2-20-1-21-4-15-5-18-8-18-11-13-10-14-12-7-7-7-8-11-13-10-15-9-16-8-17-8-24-5-21-4-28-1-16v-29l3-31 4-24 8-32 7-21 10-24 9-17 1-1 2-29 6-29 11-33 10-24 13-25 16-25 14-21 11-15 8-14 7-18 4-17 1-7v-27l-3-19-7-23-6-13v-3l4 2 9 10 10 14 9 17 5 17 2 13v14l-3 28-4 20-8 24-1 6 8 19 6 20 4 23v12l-3 19-6 21-8 21-10 21-10 17-13 18-12 16-10 15-11 19-12 25-10 30-5 24-4 26-2 18-1 15v18l2 24 3 14 5 12 9 14 9 10 8 7 10 5 4 1h12l12-4 8-5 5-4 6-9 5-10 3-13v-15l-10-3-14-6-15-10-6-5-7-10-6-13-2-7v-17l5-12 8-10 8-8 8-6-3-9-3-10-1-14 2-9 5-8 7-4h10l7 4 7 11 4 12 1 6v9l-3 9-2 5 10 2 12 1h12l8-2 7-6 3-9-3-9-9-12-3-1-7 1-4-10-1-5v-11l4-10 1-2 7 1 8 8 11 15 8 16 4 17v21l-4 15-4 6-7 4-7 2h-12l-17-3-15-6-10-7-7 4-11 9-9 9-9 13-1 3 4 7 17 9 21 10 9 8 3 9 1 7v29l-3 22-4 13 29-4 12-4 5-4 7-15 4-18 1-22-1-18v-13l2-13 4-9 4-6 10-9 12-8v-9l-8-42-10-44-7-23-11-31-11-21-3-1-2 12-1 19-2-3-4-23-1-21 2-9 2-2 7 1 5 4 9 16 9 19 9 25 7 24 8 39 4 5h6l7-9 7-6 9-1 6 4 7 11 5 14 1 6v11l-4 15-10 19-4 8h24l8-2 5-3 3-16v-11l-2-19-5-21-7-17-7-11-15-23-12-19-11-17-13-21-13-22-12-22-5-13-4-21-1-8v-28l3-21 4-15 8-21 4-8-1-8-12-36-6-24-3-22v-34l3-18 5-15 8-14-1-8-4-25-1-13v-16l2-20 4-18 7-19 9-17 9-12z" fill="#752885"/>
<path transform="translate(988,423)" d="m0 0 2 1 8 21 16 38 16 35 11 23 20 40 15 32 16 41 12 36 7 25 7 35 2 22v20l-2 20-5 24-7 21-8 16-9 16-9 12-12 14-13 13-11 9-16 11-20 12-17 8-19 6-20 4-12 1h-14l-20-3-21-6-21-10-12-8-10-8-10-9-12-12-9-11-11-15-11-18-8-16-6-15-5-18-4-21-2-21v-40l3-29 6-33 8-32 12-36 4-11 2 4 4 20 6 17 4 8-1 9-16 55-5 24-3 23v43l4 27 5 19 8 19 7 13 8 12 9 11 8 7 10 7 12 5 6 1h12l15-3 8-4 7-7 3-5 8 6 14 9 9 3 7 1h9l9-2 6-4 5-8 2-6 1-17-1-21v-36l3-10 7-9 7-7 7-4 9 3 7 2h16l13-4 10-7 7-7 8-13 6-15 4-18 1-8v-35l-4-27-5-19-6-15-13-25-16-26-29-43-11-17-11-19-7-15-4-15-1-7v-14l2-14 5-16z" fill="#FEFFFE"/>
<path transform="translate(984,260)" d="m0 0 3 4 11 30 15 33 12 25 17 32 13 23 12 23 12 22 10 23 8 26 5 22 3 21 2 30v23l-1 20-3-3-12-27-14-29-12-24-12-22-13-24-12-23-13-28-14-36-11-31-8-30-4-23-1-9v-22l3-16z" fill="#FEFFFE"/>
<path transform="translate(900,433)" d="m0 0 2 2 4 18 1 8v19l-3 17-5 15-7 14-13 19-9 12-11 16-10 15-13 22-14 26-3 8-3-3-4-11-2-10v-26l4-16 5-13 9-17 22-33 14-20 20-30 10-18z" fill="#FEFFFE"/>
<path transform="translate(1085,818)" d="m0 0 4 4 2 7 1 13-2 14-1 4h-9l-3-3-3 3h-8l-3-3-2-6-1-7v-9l2-11 2-1 1 18 1 2 8 1-2-10v-13h3l6 22 4 1-3-17v-5z" fill="#752885"/>
<path transform="translate(915,637)" d="m0 0 14 1 6 3-1 7-6 9-8 7-10 4h-12v-3l9-8 1-2-6-2-3-4 1-5 6-5z" fill="#752885"/>
<path transform="translate(1029,720)" d="m0 0h8l-1 8-7 14-9 10-8 6h-3l-2-8v-15l3-7 8-5z" fill="#FEFFFE"/>
<path transform="translate(939,780)" d="m0 0 4 1 11 16-4 5-6 4 2 5 6 9-1 3-8 6-4-1-9-15-1-4 10-6-2-4-7-11 1-3z" fill="#752885"/>
<path transform="translate(901,935)" d="m0 0 3 1 7 11 5-2 7-4 12 16-2 4-9 6-6-7-3-4-5 2-7 3-6-9-6-11z" fill="#752885"/>
<path transform="translate(1031,902)" d="m0 0h2l-2 6-8 10-10 7-10 4-6 1h-15l-4-2 12-5 25-12z" fill="#752885"/>
<path transform="translate(1097,715)" d="m0 0 5 5 9 13v7l-5 5-8 6h-3l-6-10 1-5 6-4h2z" fill="#752885"/>
<path transform="translate(871,653)" d="m0 0 5 5 7 11v3l-9 6-4-1-10-16v-2z" fill="#752885"/>
<path transform="translate(856,862)" d="m0 0 4 5 7 10 1 9-10 8-4 1-6-10 1-3 7-5z" fill="#752885"/>
<path transform="translate(775,780)" d="m0 0h2v47h-2l-6-12-1-3v-14l5-14z" fill="#752885"/>
<path transform="translate(964,654)" d="m0 0 8 6 6 9 2 6v19l-2 5h-2l-3-14-9-27z" fill="#752885"/>
<path transform="translate(838,809)" d="m0 0 6 2 9 7 6 10 2 7v16l-2-2-8-17-13-22z" fill="#752885"/>
<path transform="translate(888,711)" d="m0 0 9 1 2 2-1 9-4 6-3 3-4-1-5-6-1-7 4-6z" fill="#FEFFFE"/>
</svg>
