<?xml version="1.0" standalone="no"?>
<!DOCTYPE svg PUBLIC "-//W3C//DTD SVG 20010904//EN"
 "http://www.w3.org/TR/2001/REC-SVG-20010904/DTD/svg10.dtd">
<svg version="1.0" xmlns="http://www.w3.org/2000/svg"
 width="1020.000000pt" height="568.000000pt" viewBox="0 0 1020.000000 568.000000"
 preserveAspectRatio="xMidYMid meet">

<g transform="translate(0.000000,568.000000) scale(0.100000,-0.100000)"
fill="#000000" stroke="none">
<path d="M4962 5142 c-103 -159 -138 -382 -97 -601 15 -78 15 -83 -3 -109 -99
-143 -87 -446 28 -756 l22 -57 -26 -55 c-54 -113 -70 -197 -71 -349 0 -147 13
-211 57 -300 35 -69 177 -303 300 -494 128 -199 150 -251 168 -394 11 -93 2
-169 -24 -195 -18 -19 -152 -30 -167 -15 -6 6 6 40 32 92 37 73 42 91 41 146
-1 65 -26 141 -59 177 -28 32 -71 23 -113 -23 -29 -32 -42 -40 -59 -34 -11 3
-23 16 -26 28 -3 12 -13 65 -24 117 -38 185 -139 448 -190 494 -36 32 -56 17
-59 -44 -4 -58 6 -165 15 -157 2 3 7 26 11 51 4 26 12 47 17 48 26 3 121 -228
166 -406 27 -105 89 -406 89 -432 0 -14 -17 -33 -52 -57 -29 -20 -64 -53 -78
-73 -24 -36 -25 -46 -31 -233 -5 -188 -6 -198 -34 -259 -34 -76 -54 -88 -172
-105 l-85 -13 36 -27 c126 -97 261 -87 297 21 8 25 9 84 4 198 -7 174 -2 212
39 267 11 16 35 37 53 48 32 20 34 20 78 3 113 -43 242 22 302 152 41 90 55
184 50 324 -10 256 -52 356 -320 758 -192 289 -229 382 -207 525 11 75 48 173
60 160 4 -4 22 -46 40 -93 62 -157 137 -324 258 -570 172 -350 263 -590 319
-840 22 -96 27 -141 27 -270 1 -179 -18 -275 -84 -417 -152 -328 -514 -573
-846 -573 -92 0 -244 42 -332 92 -128 73 -279 231 -372 389 -174 293 -182 731
-24 1218 55 170 59 177 68 110 4 -29 21 -88 38 -132 l30 -80 -50 -181 c-29
-99 -57 -210 -64 -246 -19 -101 -16 -349 6 -450 58 -275 229 -480 400 -480
161 0 219 89 220 337 1 165 -1 168 -147 240 -128 63 -140 79 -102 134 34 48
116 125 150 141 20 9 28 8 44 -6 29 -27 113 -55 183 -61 50 -5 70 -2 98 12 84
44 92 238 14 371 -29 49 -105 132 -121 132 -6 0 -16 -14 -22 -31 -24 -68 -5
-149 35 -149 27 0 56 -28 79 -76 14 -29 14 -37 1 -68 -19 -47 -41 -56 -133
-56 -105 0 -127 7 -118 34 33 97 -4 231 -71 256 -37 14 -80 -6 -99 -47 -20
-43 -16 -133 8 -179 15 -29 15 -29 -43 -85 -72 -69 -91 -105 -91 -173 -2 -130
83 -226 265 -300 l39 -16 -5 -58 c-13 -137 -112 -242 -228 -242 -55 0 -106 28
-163 89 -105 112 -140 266 -117 509 35 374 110 575 320 858 135 182 226 383
251 555 10 68 9 93 -6 169 -9 49 -32 124 -49 168 -30 73 -31 81 -18 113 49
120 81 351 62 457 -15 90 -67 195 -130 262 l-51 55 20 -41 c28 -59 58 -177 66
-264 11 -128 -33 -291 -107 -398 -199 -287 -282 -439 -342 -627 -44 -140 -56
-202 -59 -302 -1 -45 -5 -79 -9 -77 -11 7 -83 -152 -118 -261 -131 -412 -119
-816 34 -1130 180 -368 538 -595 878 -556 169 20 302 78 482 212 360 268 506
572 467 971 -16 169 -66 343 -172 605 -11 28 -10 40 10 96 69 196 67 475 -4
721 -48 166 -125 331 -298 641 -176 315 -195 351 -222 414 -108 259 -125 534
-45 747 11 30 18 54 16 54 -2 0 -18 -21 -34 -48z m-17 -857 c42 -112 202 -443
296 -610 155 -277 206 -398 244 -580 21 -102 34 -317 26 -420 l-6 -80 -49 110
c-59 134 -139 293 -223 442 -164 294 -298 626 -348 868 -24 115 -25 267 -1
328 10 27 20 47 21 45 2 -2 20 -48 40 -103z m-436 -839 c21 -117 10 -222 -35
-325 -13 -29 -68 -117 -123 -195 -127 -181 -159 -232 -225 -357 l-54 -102 -17
39 c-9 21 -19 76 -22 120 -5 67 -2 94 17 155 31 102 39 116 216 379 86 128
170 262 186 297 17 35 34 61 38 56 5 -4 13 -35 19 -67z m-31 -1337 c2 -17 -6
-37 -22 -55 -24 -28 -24 -29 -45 -10 -23 21 -28 65 -9 84 7 7 26 12 43 10 24
-2 31 -8 33 -29z m687 -41 c-4 -18 -16 -47 -26 -65 -21 -34 -93 -103 -108
-103 -14 0 -23 72 -15 114 7 39 36 61 99 77 55 13 57 12 50 -23z"/>
<path d="M4502 2480 c-28 -26 -28 -34 1 -53 l22 -15 -24 -26 c-21 -22 -22 -26
-8 -32 28 -10 84 16 121 57 59 65 47 89 -43 89 -34 0 -53 -6 -69 -20z"/>
<path d="M4306 2405 c-17 -13 -18 -18 -7 -37 29 -55 39 -62 66 -50 31 14 31
23 3 67 -25 38 -34 41 -62 20z"/>
<path d="M4810 2404 c0 -5 11 -42 25 -82 14 -41 25 -80 25 -88 0 -8 5 -14 10
-14 16 0 12 88 -6 125 -16 34 -54 75 -54 59z"/>
<path d="M5472 2076 c1 -29 -4 -42 -22 -56 -24 -18 -22 -47 4 -69 11 -9 21 -5
45 15 38 32 39 47 1 104 l-30 45 2 -39z"/>
<path d="M4655 1774 c-16 -12 -18 -18 -7 -34 42 -68 42 -59 -6 -88 -10 -6 -7
-19 13 -55 23 -41 29 -46 46 -36 31 16 34 38 10 69 l-21 29 29 22 30 22 -30
43 c-33 49 -36 50 -64 28z"/>
<path d="M3844 1745 c-19 -46 -17 -113 5 -153 l17 -33 0 110 c-1 61 -2 111 -4
111 -2 0 -10 -16 -18 -35z"/>
<path d="M4190 1637 c0 -3 22 -47 50 -98 41 -77 50 -89 49 -64 0 39 -22 101
-45 127 -18 19 -54 43 -54 35z"/>
<path d="M5397 1587 c-3 -8 -1 -32 4 -53 12 -54 11 -64 -6 -64 -13 0 -35 55
-35 87 0 6 -5 15 -11 19 -7 4 -9 -11 -4 -51 7 -56 7 -57 -16 -53 -18 2 -25 11
-29 33 -4 21 -8 26 -14 17 -7 -12 -3 -61 10 -104 6 -21 64 -26 64 -6 0 9 3 9
12 0 20 -20 47 -14 54 13 16 62 -11 209 -29 162z"/>
<path d="M5291 1554 c0 -11 3 -14 6 -6 3 7 2 16 -1 19 -3 4 -6 -2 -5 -13z"/>
<path d="M4270 1341 c0 -14 -9 -35 -21 -47 -17 -18 -19 -26 -10 -43 14 -25 24
-26 56 -5 32 21 32 51 0 89 -24 30 -24 30 -25 6z"/>
<path d="M5094 1157 c-22 -13 -80 -43 -130 -66 l-89 -42 66 3 c78 4 147 41
181 96 11 17 18 32 16 32 -1 0 -21 -11 -44 -23z"/>
<path d="M4468 1004 l-27 -14 27 -45 c26 -44 45 -55 57 -35 11 18 41 10 55
-15 16 -30 31 -32 55 -5 17 19 17 21 -9 55 -31 40 -33 41 -63 20 -21 -15 -23
-14 -45 19 -22 33 -25 33 -50 20z"/>
</g>
</svg>
