<?xml version="1.0" encoding="UTF-8"?>
<svg id="Layer_1" data-name="Layer 1" xmlns="http://www.w3.org/2000/svg" viewBox="0 0 255.12 141.73">
  <defs>
    <style>
      .cls-1 {
        fill: #fff;
      }

      .cls-2 {
        fill: #78278b;
      }
    </style>
  </defs>
  <path class="cls-2" d="M125.44,11.32s-6.09,9.99,2.08,24.42c8.91,15.74,11.55,20.75,12.39,28.71,.92,8.8-1.85,13.66-1.85,13.66l-.46-1.27s1.68-11.08-3.36-20.95c-2.89-5.67-7.03-12.48-9.38-18.18-1.74-4.22-2.66-6.94-2.66-6.94,0,0-3.94-11.58,3.24-19.45Z"/>
  <path class="cls-2" d="M122.31,29.72l.69,1.74s-3.66,3.22,.93,16.21c2.08,5.91,3.74,9.63,6.71,14.93,6.37,11.34,11.28,23.8,11.92,28.94,.69,5.56,2.54,17.36-12.85,27.78,0,0-13.2,11-26.97-1.85-13.77-12.85-8.45-34.84-3.59-42.95l.23,.58s-9.03,20.95-.93,34.5c9.66,16.15,22.69,12.62,28.01,9.14,0,0,15.57-7.32,12.62-26.28-1.62-10.42-8.03-22.43-8.33-23.03-4.75-9.26-9.7-21.48-10.53-26.51-.46-2.78-1.27-9.49,2.08-13.2Z"/>
  <path class="cls-2" d="M123.24,52.3s-2.49,3.88-1.21,8.74c1.27,4.86,10.06,14.58,11.98,21.07,1.39,4.69,2.05,12.73-1.62,16.84-3.3,3.71-7.29,1.27-7.29,1.27,0,0-3.13,1.21-3.24,4.63-.07,2.2,.35,6.48,.23,7.41-.12,.92-.28,4.4-4.98,3.36-1.56-.35-3.82-2.31-3.82-2.31,0,0,4.46-.29,5.44-1.04,.98-.75,2.43-3.82,1.97-8.8-.46-4.98,1.16-5.9,2.2-6.83,1.04-.93,1.85-.93,1.85-1.74s-2.32-12.39-3.47-14.82c-.28-.59-.76-2.64-1.74-4.46-.81-1.5-1.27-2.6-1.51-.87-.23,1.74-.12,3.42-.12,3.42,0,0-1.25-5.38-.58-7,.41-.98,1.68,.29,1.68,.29,0,0,2.84,4.34,4.22,10.59,.5,2.23,.98,4.86,.98,4.86,0,0,.93,1.27,1.68,0,.71-1.2,2.4-2.52,3.59-.46,2.72,4.69,.14,7.36-1.04,9.72-.11,.23,3.94,.7,4.75-.58,.81-1.27,.58-7.52-1.85-11.23-2.43-3.71-9.49-14.47-10.3-17.13-.81-2.66-1.97-9.61,1.85-16.2l.35,1.27Z"/>
  <path class="cls-1" d="M129.2,89.34s-3.24,.11-3.7,1.62c-.46,1.5,.17,3.36,.17,3.36,0,0,3.3-1.79,3.53-4.98Z"/>
  <path class="cls-2" d="M116.93,87.95s-1.58-2.41-.06-4.69c.46-.69,2.49,1.85,3.42,3.47,.37,.66,2.2,4.23,.64,8.1-1.05,2.62-7.58,.98-8.86-.75,0,0-2.79,1.61-4.57,4.51-.64,1.04,1.56,2.03,1.56,2.03,0,0,3.53,1.56,3.82,1.85,.4,.41,1.39,.52,1.39,3.65s-.06,7.99-2.66,9.03c-2.61,1.04-6.77,1.68-10.82-5.32-4.05-7-2.84-16.32-1.68-20.43,1.16-4.11,2.2-7.35,2.2-7.7s-2.26-3.47-1.97-9.09c.29-5.61,3.52-13,5.15-15.45,.12-.17,2.14-3.41,3.3-5.15,.73-1.1,7.99-8.51,2.03-20.14,0,0,5.15,4.11,4.92,10.24-.23,6.13-1.5,8.8-2.14,10.3,0,0,1.62,2.49,2.32,7.35,.58,4.03-2.14,11.58-6.08,16.5-3.94,4.92-6.77,10.42-7.7,17.01,0,0-1.91,10.48,.4,14.76,2.31,4.28,4.86,4.98,5.79,4.98s4.38-.35,5.67-4.86c.46-1.62,.06-2.84,.06-2.84,0,0-5.21-1.27-6.71-4.75-1.5-3.47-.93-5.56,3.07-8.56,0,0-1.51-2.84-.81-4.98,.69-2.14,2.95-2.26,3.94-.69,.98,1.56,1.67,4.28,.46,5.73-.58,.69,4.5,.93,5.32,.46,.81-.46,1.85-1.68,.98-3.01-1.04-1.59-1.45-1.85-1.45-1.85l-.93,.29Z"/>
  <path class="cls-1" d="M110.39,88.35s1.27-.17,1.56,.29c.29,.46-.46,2.14-1.1,2.26-.64,.12-1.04-.98-1.16-1.22-.12-.23,.17-1.1,.7-1.33Z"/>
  <path class="cls-1" d="M112.13,53.45s2.89,6.71-2.03,13.19c-4.92,6.49-7.58,11.75-8.22,13.37,0,0-3.16-5,1.16-11.81,4.4-6.94,7.87-10.82,9.09-14.76Z"/>
  <polygon class="cls-2" points="117.16 96.86 115.77 97.73 117.11 99.7 115.66 100.62 117.11 103.11 118.55 102.01 117.34 100.28 118.78 99.12 117.16 96.86"/>
  <polygon class="cls-2" points="112.36 116.19 113.52 117.93 114.91 117 116.47 119.09 115.02 120.19 113.92 118.62 112.47 119.43 110.97 117 112.36 116.19"/>
  <path class="cls-2" d="M132.56,101.9s-1.17,2.46,.05,4.89l1.29,.03,.23-.52,.41,.58,1.01-.02s.96-3.8-.37-5.25l-.4,.69,.46,2.55-.69,.06s-.7-2.89-.81-3.06l-.31,.9,.43,2.11s-1.23,.54-1.34-.56c-.12-1.1,.07-2.39,.07-2.39Z"/>
  <path class="cls-2" d="M113.05,79.27s2.47-.35,3.24,.31c.61,.51-1.78,4.24-4.63,3.2l1.54-1.39s-2.59-.66-.15-2.12Z"/>
  <polygon class="cls-2" points="108.5 81.08 107.07 81.97 108.54 84.25 110.01 83.28 108.5 81.08"/>
  <path class="cls-2" d="M119.96,81.2s1.54,3.97,1.74,5.75c0,0,1.58-3.63-1.74-5.75Z"/>
  <path class="cls-2" d="M104.3,100.45s2.31,3.59,2.85,5.29c0,0,.83-3.87-2.85-5.29Z"/>
  <path class="cls-2" d="M96.76,102.87s-.31-4.25,.03-6.01c0,0-2.58,3-.03,6.01Z"/>
  <path class="cls-2" d="M128.73,111.98s-4.8,2.82-7.05,3.43c0,0,5,1.29,7.05-3.43Z"/>
  <path class="cls-2" d="M136.55,88.58s.58,2.26,.12,2.32l-1.16,.81,.98,1.68,1.74-1.27s.17-.69,0-1.1c-.17-.41-1.68-2.43-1.68-2.43Z"/>
  <path class="cls-2" d="M106.5,107.06s.51,1.98,.1,2.03l-1.01,.71,.86,1.47,1.52-1.12s.15-.61,0-.96c-.15-.36-1.47-2.13-1.47-2.13Z"/>
</svg>