<?xml version="1.0" encoding="UTF-8"?>
<svg width="923px" height="437px" viewBox="0 0 923 437" version="1.1" xmlns="http://www.w3.org/2000/svg" xmlns:xlink="http://www.w3.org/1999/xlink" preserveAspectRatio="xMidYMid slice">
    <!-- Generator: Sketch 50.2 (55047) - http://www.bohemiancoding.com/sketch -->
    <title>merchant</title>
    <desc>Created with Sketch.</desc>
    <defs></defs>
    <g id="merchant" stroke="none" stroke-width="1" fill="none" fill-rule="evenodd">
        <polygon id="Shape" stroke="#57BEE3" stroke-width="1.51" fill="#57BEE3" fill-rule="nonzero" points="517 112 572 94 505 65"></polygon>
        <polygon id="Shape" stroke="#58BBE3" stroke-width="1.51" fill="#58BBE3" fill-rule="nonzero" points="572 94 577 70 505 65"></polygon>
        <polygon id="Shape" stroke="#58B3E2" stroke-width="1.51" fill="#58B3E2" fill-rule="nonzero" points="517 112 532 168 572 94"></polygon>
        <polygon id="Shape" stroke="#59ADE1" stroke-width="1.51" fill="#59ADE1" fill-rule="nonzero" points="517 112 498 192 532 168"></polygon>
        <polygon id="Shape" stroke="#5CAFE1" stroke-width="1.51" fill="#5CAFE1" fill-rule="nonzero" points="406 157 498 192 517 112"></polygon>
        <polygon id="Shape" stroke="#59A8E0" stroke-width="1.51" fill="#59A8E0" fill-rule="nonzero" points="532 168 626 159 572 94"></polygon>
        <polygon id="Shape" stroke="#5AB3E2" stroke-width="1.51" fill="#5AB3E2" fill-rule="nonzero" points="572 94 654 35 577 70"></polygon>
        <polygon id="Shape" stroke="#599DDE" stroke-width="1.51" fill="#599DDE" fill-rule="nonzero" points="606 192 626 159 532 168"></polygon>
        <polygon id="Shape" stroke="#5DBDE4" stroke-width="1.51" fill="#5DBDE4" fill-rule="nonzero" points="577 70 586 -45 505 65"></polygon>
        <polygon id="Shape" stroke="#5BACE0" stroke-width="1.51" fill="#5BACE0" fill-rule="nonzero" points="694 74 654 35 572 94"></polygon>
        <polygon id="Shape" stroke="#599BDE" stroke-width="1.51" fill="#599BDE" fill-rule="nonzero" points="542 237 606 192 532 168"></polygon>
        <polygon id="Shape" stroke="#5FB4E2" stroke-width="1.51" fill="#5FB4E2" fill-rule="nonzero" points="654 35 586 -45 577 70"></polygon>
        <polygon id="Shape" stroke="#5AC2E4" stroke-width="1.51" fill="#5AC2E4" fill-rule="nonzero" points="505 65 400 68 517 112"></polygon>
        <polygon id="Shape" stroke="#61C5E5" stroke-width="1.51" fill="#61C5E5" fill-rule="nonzero" points="451 -40 400 68 505 65"></polygon>
        <polygon id="Shape" stroke="#62C6E5" stroke-width="1.51" fill="#62C6E5" fill-rule="nonzero" points="535 -80 451 -40 505 65"></polygon>
        <polygon id="Shape" stroke="#5DBCE4" stroke-width="1.51" fill="#5DBCE4" fill-rule="nonzero" points="400 68 406 157 517 112"></polygon>
        <polygon id="Shape" stroke="#61C2E4" stroke-width="1.51" fill="#61C2E4" fill-rule="nonzero" points="586 -45 535 -80 505 65"></polygon>
        <polygon id="Shape" stroke="#63B5E2" stroke-width="1.51" fill="#63B5E2" fill-rule="nonzero" points="654 35 606 -54 586 -45"></polygon>
        <polygon id="Shape" stroke="#59A2DF" stroke-width="1.51" fill="#59A2DF" fill-rule="nonzero" points="498 192 542 237 532 168"></polygon>
        <polygon id="Shape" stroke="#5A99DD" stroke-width="1.51" fill="#5A99DD" fill-rule="nonzero" points="498 275 542 237 498 192"></polygon>
        <polygon id="Shape" stroke="#59A7E0" stroke-width="1.51" fill="#59A7E0" fill-rule="nonzero" points="626 159 694 74 572 94"></polygon>
        <polygon id="Shape" stroke="#64B1E1" stroke-width="1.51" fill="#64B1E1" fill-rule="nonzero" points="654 35 656 -69 606 -54"></polygon>
        <polygon id="Shape" stroke="#5998DD" stroke-width="1.51" fill="#5998DD" fill-rule="nonzero" points="716 156 694 74 626 159"></polygon>
        <polygon id="Shape" stroke="#5EA9E0" stroke-width="1.51" fill="#5EA9E0" fill-rule="nonzero" points="406 157 423 197 498 192"></polygon>
        <polygon id="Shape" stroke="#66C8E5" stroke-width="1.51" fill="#66C8E5" fill-rule="nonzero" points="451 -40 419 -38 400 68"></polygon>
        <polygon id="Shape" stroke="#5EA6E0" stroke-width="1.51" fill="#5EA6E0" fill-rule="nonzero" points="694 74 696 3 654 35"></polygon>
        <polygon id="Shape" stroke="#61C0E4" stroke-width="1.51" fill="#61C0E4" fill-rule="nonzero" points="400 68 331 88 406 157"></polygon>
        <polygon id="Shape" stroke="#61A7E0" stroke-width="1.51" fill="#61A7E0" fill-rule="nonzero" points="406 157 378 226 423 197"></polygon>
        <polygon id="Shape" stroke="#65C7E5" stroke-width="1.51" fill="#65C7E5" fill-rule="nonzero" points="419 -38 359 49 400 68"></polygon>
        <polygon id="Shape" stroke="#63AAE0" stroke-width="1.51" fill="#63AAE0" fill-rule="nonzero" points="696 3 656 -69 654 35"></polygon>
        <polygon id="Shape" stroke="#588ADB" stroke-width="1.51" fill="#588ADB" fill-rule="nonzero" points="735 201 716 156 626 159"></polygon>
        <polygon id="Shape" stroke="#5D9DDD" stroke-width="1.51" fill="#5D9DDD" fill-rule="nonzero" points="694 74 794 64 696 3"></polygon>
        <polygon id="Shape" stroke="#598EDB" stroke-width="1.51" fill="#598EDB" fill-rule="nonzero" points="735 201 626 159 606 192"></polygon>
        <polygon id="Shape" stroke="#69C9E5" stroke-width="1.51" fill="#69C9E5" fill-rule="nonzero" points="419 -38 378 -37 359 49"></polygon>
        <polygon id="Shape" stroke="#5D9DDE" stroke-width="1.51" fill="#5D9DDE" fill-rule="nonzero" points="423 197 498 275 498 192"></polygon>
        <polygon id="Shape" stroke="#588ADA" stroke-width="1.51" fill="#588ADA" fill-rule="nonzero" points="542 237 643 286 606 192"></polygon>
        <polygon id="Shape" stroke="#62C6E5" stroke-width="1.51" fill="#62C6E5" fill-rule="nonzero" points="359 49 331 88 400 68"></polygon>
        <polygon id="Shape" stroke="#66C8E5" stroke-width="1.51" fill="#66C8E5" fill-rule="nonzero" points="260 35 331 88 359 49"></polygon>
        <polygon id="Shape" stroke="#5E96DC" stroke-width="1.51" fill="#5E96DC" fill-rule="nonzero" points="423 197 435 281 498 275"></polygon>
        <polygon id="Shape" stroke="#63B2E1" stroke-width="1.51" fill="#63B2E1" fill-rule="nonzero" points="331 88 378 226 406 157"></polygon>
        <polygon id="Shape" stroke="#619CDD" stroke-width="1.51" fill="#619CDD" fill-rule="nonzero" points="378 226 435 281 423 197"></polygon>
        <polygon id="Shape" stroke="#597FD5" stroke-width="1.51" fill="#597FD5" fill-rule="nonzero" points="563 353 643 286 542 237"></polygon>
        <polygon id="Shape" stroke="#5989D7" stroke-width="1.51" fill="#5989D7" fill-rule="nonzero" points="563 353 542 237 498 275"></polygon>
        <polygon id="Shape" stroke="#5995DC" stroke-width="1.51" fill="#5995DC" fill-rule="nonzero" points="716 156 785 97 694 74"></polygon>
        <polygon id="Shape" stroke="#5782D9" stroke-width="1.51" fill="#5782D9" fill-rule="nonzero" points="643 286 735 201 606 192"></polygon>
        <polygon id="Shape" stroke="#6ACBE5" stroke-width="1.51" fill="#6ACBE5" fill-rule="nonzero" points="378 -37 353 -59 359 49"></polygon>
        <polygon id="Shape" stroke="#5577D7" stroke-width="1.51" fill="#5577D7" fill-rule="nonzero" points="643 286 741 219 735 201"></polygon>
        <polygon id="Shape" stroke="#5787DA" stroke-width="1.51" fill="#5787DA" fill-rule="nonzero" points="735 201 785 97 716 156"></polygon>
        <polygon id="Shape" stroke="#567DD7" stroke-width="1.51" fill="#567DD7" fill-rule="nonzero" points="855 168 785 97 735 201"></polygon>
        <polygon id="Shape" stroke="#67A8E0" stroke-width="1.51" fill="#67A8E0" fill-rule="nonzero" points="696 3 734 -110 656 -69"></polygon>
        <polygon id="Shape" stroke="#5D8AD6" stroke-width="1.51" fill="#5D8AD6" fill-rule="nonzero" points="435 281 493 330 498 275"></polygon>
        <polygon id="Shape" stroke="#6089D2" stroke-width="1.51" fill="#6089D2" fill-rule="nonzero" points="435 281 432 313 493 330"></polygon>
        <polygon id="Shape" stroke="#628ED7" stroke-width="1.51" fill="#628ED7" fill-rule="nonzero" points="309 283 432 313 435 281"></polygon>
        <polygon id="Shape" stroke="#5A96DC" stroke-width="1.51" fill="#5A96DC" fill-rule="nonzero" points="785 97 794 64 694 74"></polygon>
        <polygon id="Shape" stroke="#536ED4" stroke-width="1.51" fill="#536ED4" fill-rule="nonzero" points="727 290 749 239 741 219"></polygon>
        <polygon id="Shape" stroke="#5A6EC8" stroke-width="1.51" fill="#5A6EC8" fill-rule="nonzero" points="616 386 662 307 643 286"></polygon>
        <polygon id="Shape" stroke="#5575D6" stroke-width="1.51" fill="#5575D6" fill-rule="nonzero" points="741 219 855 168 735 201"></polygon>
        <polygon id="Shape" stroke="#5A8CDB" stroke-width="1.51" fill="#5A8CDB" fill-rule="nonzero" points="785 97 854 67 794 64"></polygon>
        <polygon id="Shape" stroke="#5470D5" stroke-width="1.51" fill="#5470D5" fill-rule="nonzero" points="727 290 741 219 643 286"></polygon>
        <polygon id="Shape" stroke="#5D85CE" stroke-width="1.51" fill="#5D85CE" fill-rule="nonzero" points="493 330 563 353 498 275"></polygon>
        <polygon id="Shape" stroke="#616EB7" stroke-width="1.51" fill="#616EB7" fill-rule="nonzero" points="616 386 563 353 549 430"></polygon>
        <polygon id="Shape" stroke="#679FDE" stroke-width="1.51" fill="#679FDE" fill-rule="nonzero" points="801 -54 734 -110 696 3"></polygon>
        <polygon id="Shape" stroke="#6BCBE6" stroke-width="1.51" fill="#6BCBE6" fill-rule="nonzero" points="251 -10 260 35 359 49"></polygon>
        <polygon id="Shape" stroke="#66B2E1" stroke-width="1.51" fill="#66B2E1" fill-rule="nonzero" points="331 88 247 183 378 226"></polygon>
        <polygon id="Shape" stroke="#6CCCE5" stroke-width="1.51" fill="#6CCCE5" fill-rule="nonzero" points="251 -10 359 49 353 -59"></polygon>
        <polygon id="Shape" stroke="#5667CB" stroke-width="1.51" fill="#5667CB" fill-rule="nonzero" points="692 337 727 290 662 307"></polygon>
        <polygon id="Shape" stroke="#556DD1" stroke-width="1.51" fill="#556DD1" fill-rule="nonzero" points="662 307 727 290 643 286"></polygon>
        <polygon id="Shape" stroke="#6199DD" stroke-width="1.51" fill="#6199DD" fill-rule="nonzero" points="794 64 801 -54 696 3"></polygon>
        <polygon id="Shape" stroke="#5B68C2" stroke-width="1.51" fill="#5B68C2" fill-rule="nonzero" points="616 386 692 337 662 307"></polygon>
        <polygon id="Shape" stroke="#66C8E5" stroke-width="1.51" fill="#66C8E5" fill-rule="nonzero" points="260 35 242 127 331 88"></polygon>
        <polygon id="Shape" stroke="#6295DC" stroke-width="1.51" fill="#6295DC" fill-rule="nonzero" points="378 226 309 283 435 281"></polygon>
        <polygon id="Shape" stroke="#69CAE5" stroke-width="1.51" fill="#69CAE5" fill-rule="nonzero" points="260 35 205 100 242 127"></polygon>
        <polygon id="Shape" stroke="#67A0DE" stroke-width="1.51" fill="#67A0DE" fill-rule="nonzero" points="247 183 309 283 378 226"></polygon>
        <polygon id="Shape" stroke="#617CC0" stroke-width="1.51" fill="#617CC0" fill-rule="nonzero" points="478 415 563 353 493 330"></polygon>
        <polygon id="Shape" stroke="#68BCE3" stroke-width="1.51" fill="#68BCE3" fill-rule="nonzero" points="242 127 247 183 331 88"></polygon>
        <polygon id="Shape" stroke="#6380C4" stroke-width="1.51" fill="#6380C4" fill-rule="nonzero" points="478 415 493 330 432 313"></polygon>
        <polygon id="Shape" stroke="#5C71C4" stroke-width="1.51" fill="#5C71C4" fill-rule="nonzero" points="563 353 616 386 643 286"></polygon>
        <polygon id="Shape" stroke="#6290D9" stroke-width="1.51" fill="#6290D9" fill-rule="nonzero" points="794 64 867 -25 801 -54"></polygon>
        <polygon id="Shape" stroke="#5B89D5" stroke-width="1.51" fill="#5B89D5" fill-rule="nonzero" points="875 95 854 67 785 97"></polygon>
        <polygon id="Shape" stroke="#5471D5" stroke-width="1.51" fill="#5471D5" fill-rule="nonzero" points="855 168 741 219 749 239"></polygon>
        <polygon id="Shape" stroke="#5064D3" stroke-width="1.51" fill="#5064D3" fill-rule="nonzero" points="727 290 757 313 749 239"></polygon>
        <polygon id="Shape" stroke="#5461C8" stroke-width="1.51" fill="#5461C8" fill-rule="nonzero" points="692 337 757 313 727 290"></polygon>
        <polygon id="Shape" stroke="#5656BD" stroke-width="1.51" fill="#5656BD" fill-rule="nonzero" points="804 398 757 313 692 337"></polygon>
        <polygon id="Shape" stroke="#5266D0" stroke-width="1.51" fill="#5266D0" fill-rule="nonzero" points="873 262 855 168 749 239"></polygon>
        <polygon id="Shape" stroke="#6AB2E1" stroke-width="1.51" fill="#6AB2E1" fill-rule="nonzero" points="242 127 185 200 247 183"></polygon>
        <polygon id="Shape" stroke="#69C8E4" stroke-width="1.51" fill="#69C8E4" fill-rule="nonzero" points="179 37 205 100 260 35"></polygon>
        <polygon id="Shape" stroke="#71CEE5" stroke-width="1.51" fill="#71CEE5" fill-rule="nonzero" points="215 -82 204 5 251 -10"></polygon>
        <polygon id="Shape" stroke="#5A80D3" stroke-width="1.51" fill="#5A80D3" fill-rule="nonzero" points="855 168 875 95 785 97"></polygon>
        <polygon id="Shape" stroke="#608BD5" stroke-width="1.51" fill="#608BD5" fill-rule="nonzero" points="854 67 867 -25 794 64"></polygon>
        <polygon id="Shape" stroke="#677BBA" stroke-width="1.51" fill="#677BBA" fill-rule="nonzero" points="386 435 478 415 432 313"></polygon>
        <polygon id="Shape" stroke="#668BD0" stroke-width="1.51" fill="#668BD0" fill-rule="nonzero" points="309 283 328 349 432 313"></polygon>
        <polygon id="Shape" stroke="#698DD1" stroke-width="1.51" fill="#698DD1" fill-rule="nonzero" points="260 311 328 349 309 283"></polygon>
        <polygon id="Shape" stroke="#6990D6" stroke-width="1.51" fill="#6990D6" fill-rule="nonzero" points="260 311 309 283 246 301"></polygon>
        <polygon id="Shape" stroke="#6FCEE6" stroke-width="1.51" fill="#6FCEE6" fill-rule="nonzero" points="251 -10 204 5 260 35"></polygon>
        <polygon id="Shape" stroke="#6488CE" stroke-width="1.51" fill="#6488CE" fill-rule="nonzero" points="899 -12 867 -25 854 67"></polygon>
        <polygon id="Shape" stroke="#6274B6" stroke-width="1.51" fill="#6274B6" fill-rule="nonzero" points="478 415 549 430 563 353"></polygon>
        <polygon id="Shape" stroke="#5D5DB3" stroke-width="1.51" fill="#5D5DB3" fill-rule="nonzero" points="616 386 711 447 692 337"></polygon>
        <polygon id="Shape" stroke="#5E85CD" stroke-width="1.51" fill="#5E85CD" fill-rule="nonzero" points="875 95 896 73 854 67"></polygon>
        <polygon id="Shape" stroke="#5D7DC8" stroke-width="1.51" fill="#5D7DC8" fill-rule="nonzero" points="920 139 896 73 875 95"></polygon>
        <polygon id="Shape" stroke="#6992D9" stroke-width="1.51" fill="#6992D9" fill-rule="nonzero" points="246 301 309 283 228 287"></polygon>
        <polygon id="Shape" stroke="#6BCAE5" stroke-width="1.51" fill="#6BCAE5" fill-rule="nonzero" points="204 5 179 37 260 35"></polygon>
        <polygon id="Shape" stroke="#699CDD" stroke-width="1.51" fill="#699CDD" fill-rule="nonzero" points="228 287 309 283 247 183"></polygon>
        <polygon id="Shape" stroke="#65C1E0" stroke-width="1.51" fill="#65C1E0" fill-rule="nonzero" points="130 48 179 37 143 -35"></polygon>
        <polygon id="Shape" stroke="#69A3DD" stroke-width="1.51" fill="#69A3DD" fill-rule="nonzero" points="228 287 247 183 185 200"></polygon>
        <polygon id="Shape" stroke="#6D85C4" stroke-width="1.51" fill="#6D85C4" fill-rule="nonzero" points="256 414 328 349 260 311"></polygon>
        <polygon id="Shape" stroke="#6C7FBC" stroke-width="1.51" fill="#6C7FBC" fill-rule="nonzero" points="256 414 327 384 328 349"></polygon>
        <polygon id="Shape" stroke="#6880C0" stroke-width="1.51" fill="#6880C0" fill-rule="nonzero" points="328 349 386 435 432 313"></polygon>
        <polygon id="Shape" stroke="#646EAA" stroke-width="1.51" fill="#646EAA" fill-rule="nonzero" points="478 415 547 470 549 430"></polygon>
        <polygon id="Shape" stroke="#67B7E1" stroke-width="1.51" fill="#67B7E1" fill-rule="nonzero" points="185 200 242 127 205 100"></polygon>
        <polygon id="Shape" stroke="#6C8FD3" stroke-width="1.51" fill="#6C8FD3" fill-rule="nonzero" points="246 301 225 313 260 311"></polygon>
        <polygon id="Shape" stroke="#62B4E0" stroke-width="1.51" fill="#62B4E0" fill-rule="nonzero" points="116 104 185 200 205 100"></polygon>
        <polygon id="Shape" stroke="#6185CC" stroke-width="1.51" fill="#6185CC" fill-rule="nonzero" points="896 73 899 -12 854 67"></polygon>
        <polygon id="Shape" stroke="#5B76C9" stroke-width="1.51" fill="#5B76C9" fill-rule="nonzero" points="855 168 920 139 875 95"></polygon>
        <polygon id="Shape" stroke="#4E5ED1" stroke-width="1.51" fill="#4E5ED1" fill-rule="nonzero" points="757 313 873 262 749 239"></polygon>
        <polygon id="Shape" stroke="#5050C3" stroke-width="1.51" fill="#5050C3" fill-rule="nonzero" points="824 375 873 262 757 313"></polygon>
        <polygon id="Shape" stroke="#6B7DB9" stroke-width="1.51" fill="#6B7DB9" fill-rule="nonzero" points="327 384 386 435 328 349"></polygon>
        <polygon id="Shape" stroke="#5A6AC4" stroke-width="1.51" fill="#5A6AC4" fill-rule="nonzero" points="908 220 920 139 855 168"></polygon>
        <polygon id="Shape" stroke="#647FC2" stroke-width="1.51" fill="#647FC2" fill-rule="nonzero" points="896 73 1004 59 899 -12"></polygon>
        <polygon id="Shape" stroke="#6161A9" stroke-width="1.51" fill="#6161A9" fill-rule="nonzero" points="549 430 646 478 616 386"></polygon>
        <polygon id="Shape" stroke="#666BA3" stroke-width="1.51" fill="#666BA3" fill-rule="nonzero" points="475 497 547 470 478 415"></polygon>
        <polygon id="Shape" stroke="#6D77AF" stroke-width="1.51" fill="#6D77AF" fill-rule="nonzero" points="327 384 311 453 386 435"></polygon>
        <polygon id="Shape" stroke="#6B91D5" stroke-width="1.51" fill="#6B91D5" fill-rule="nonzero" points="228 287 225 313 246 301"></polygon>
        <polygon id="Shape" stroke="#668AD2" stroke-width="1.51" fill="#668AD2" fill-rule="nonzero" points="110 309 225 313 228 287"></polygon>
        <polygon id="Shape" stroke="#6871AB" stroke-width="1.51" fill="#6871AB" fill-rule="nonzero" points="386 435 447 462 478 415"></polygon>
        <polygon id="Shape" stroke="#5661C5" stroke-width="1.51" fill="#5661C5" fill-rule="nonzero" points="873 262 908 220 855 168"></polygon>
        <polygon id="Shape" stroke="#5E54A7" stroke-width="1.51" fill="#5E54A7" fill-rule="nonzero" points="695 456 711 447 616 386"></polygon>
        <polygon id="Shape" stroke="#6057A6" stroke-width="1.51" fill="#6057A6" fill-rule="nonzero" points="646 478 695 456 616 386"></polygon>
        <polygon id="Shape" stroke="#63C2E1" stroke-width="1.51" fill="#63C2E1" fill-rule="nonzero" points="179 37 130 48 205 100"></polygon>
        <polygon id="Shape" stroke="#6398DA" stroke-width="1.51" fill="#6398DA" fill-rule="nonzero" points="185 200 131 245 228 287"></polygon>
        <polygon id="Shape" stroke="#69C6E2" stroke-width="1.51" fill="#69C6E2" fill-rule="nonzero" points="143 -35 179 37 204 5"></polygon>
        <polygon id="Shape" stroke="#6EC9E3" stroke-width="1.51" fill="#6EC9E3" fill-rule="nonzero" points="143 -35 204 5 215 -82"></polygon>
        <polygon id="Shape" stroke="#554BB7" stroke-width="1.51" fill="#554BB7" fill-rule="nonzero" points="804 398 824 375 757 313"></polygon>
        <polygon id="Shape" stroke="#5454C0" stroke-width="1.51" fill="#5454C0" fill-rule="nonzero" points="873 262 896 295 908 220"></polygon>
        <polygon id="Shape" stroke="#6360A2" stroke-width="1.51" fill="#6360A2" fill-rule="nonzero" points="547 470 646 478 549 430"></polygon>
        <polygon id="Shape" stroke="#563DA5" stroke-width="1.51" fill="#563DA5" fill-rule="nonzero" points="836 386 804 398 797 478"></polygon>
        <polygon id="Shape" stroke="#5950B0" stroke-width="1.51" fill="#5950B0" fill-rule="nonzero" points="711 447 804 398 692 337"></polygon>
        <polygon id="Shape" stroke="#5546B2" stroke-width="1.51" fill="#5546B2" fill-rule="nonzero" points="901 336 896 295 824 375"></polygon>
        <polygon id="Shape" stroke="#534BBB" stroke-width="1.51" fill="#534BBB" fill-rule="nonzero" points="824 375 896 295 873 262"></polygon>
        <polygon id="Shape" stroke="#676CA4" stroke-width="1.51" fill="#676CA4" fill-rule="nonzero" points="447 462 475 497 478 415"></polygon>
        <polygon id="Shape" stroke="#5EBEE0" stroke-width="1.51" fill="#5EBEE0" fill-rule="nonzero" points="130 48 116 104 205 100"></polygon>
        <polygon id="Shape" stroke="#59B8DE" stroke-width="1.51" fill="#59B8DE" fill-rule="nonzero" points="76 80 116 104 130 48"></polygon>
        <polygon id="Shape" stroke="#5542AE" stroke-width="1.51" fill="#5542AE" fill-rule="nonzero" points="804 398 836 386 824 375"></polygon>
        <polygon id="Shape" stroke="#5A41A1" stroke-width="1.51" fill="#5A41A1" fill-rule="nonzero" points="797 478 804 398 711 447"></polygon>
        <polygon id="Shape" stroke="#6E79B1" stroke-width="1.51" fill="#6E79B1" fill-rule="nonzero" points="256 414 311 453 327 384"></polygon>
        <polygon id="Shape" stroke="#6E88C7" stroke-width="1.51" fill="#6E88C7" fill-rule="nonzero" points="225 313 256 414 260 311"></polygon>
        <polygon id="Shape" stroke="#7181BA" stroke-width="1.51" fill="#7181BA" fill-rule="nonzero" points="229 439 256 414 225 313"></polygon>
        <polygon id="Shape" stroke="#5E99D9" stroke-width="1.51" fill="#5E99D9" fill-rule="nonzero" points="107 215 131 245 185 200"></polygon>
        <polygon id="Shape" stroke="#5542AD" stroke-width="1.51" fill="#5542AD" fill-rule="nonzero" points="836 386 901 336 824 375"></polygon>
        <polygon id="Shape" stroke="#5B62BB" stroke-width="1.51" fill="#5B62BB" fill-rule="nonzero" points="984 201 920 139 908 220"></polygon>
        <polygon id="Shape" stroke="#5D65B8" stroke-width="1.51" fill="#5D65B8" fill-rule="nonzero" points="984 201 977 144 920 139"></polygon>
        <polygon id="Shape" stroke="#5F75C0" stroke-width="1.51" fill="#5F75C0" fill-rule="nonzero" points="920 139 977 144 896 73"></polygon>
        <polygon id="Shape" stroke="#5954B5" stroke-width="1.51" fill="#5954B5" fill-rule="nonzero" points="984 201 908 220 984 252"></polygon>
        <polygon id="Shape" stroke="#6B79B5" stroke-width="1.51" fill="#6B79B5" fill-rule="nonzero" points="121 438 229 439 225 313"></polygon>
        <polygon id="Shape" stroke="#5EA4DC" stroke-width="1.51" fill="#5EA4DC" fill-rule="nonzero" points="116 104 107 215 185 200"></polygon>
        <polygon id="Shape" stroke="#6A6CA3" stroke-width="1.51" fill="#6A6CA3" fill-rule="nonzero" points="391 582 447 462 386 435"></polygon>
        <polygon id="Shape" stroke="#58B5DC" stroke-width="1.51" fill="#58B5DC" fill-rule="nonzero" points="22 1 76 80 130 48"></polygon>
        <polygon id="Shape" stroke="#58A6DA" stroke-width="1.51" fill="#58A6DA" fill-rule="nonzero" points="116 104 63 124 107 215"></polygon>
        <polygon id="Shape" stroke="#5FBBDE" stroke-width="1.51" fill="#5FBBDE" fill-rule="nonzero" points="22 1 130 48 143 -35"></polygon>
        <polygon id="Shape" stroke="#564FB9" stroke-width="1.51" fill="#564FB9" fill-rule="nonzero" points="984 252 908 220 896 295"></polygon>
        <polygon id="Shape" stroke="#6178BC" stroke-width="1.51" fill="#6178BC" fill-rule="nonzero" points="977 144 1004 59 896 73"></polygon>
        <polygon id="Shape" stroke="#4EAAD9" stroke-width="1.51" fill="#4EAAD9" fill-rule="nonzero" points="-32 91 63 124 76 80"></polygon>
        <polygon id="Shape" stroke="#7074A8" stroke-width="1.51" fill="#7074A8" fill-rule="nonzero" points="256 414 247 478 311 453"></polygon>
        <polygon id="Shape" stroke="#6C6DA2" stroke-width="1.51" fill="#6C6DA2" fill-rule="nonzero" points="311 453 391 582 386 435"></polygon>
        <polygon id="Shape" stroke="#5F8AD7" stroke-width="1.51" fill="#5F8AD7" fill-rule="nonzero" points="110 309 228 287 131 245"></polygon>
        <polygon id="Shape" stroke="#573396" stroke-width="1.51" fill="#573396" fill-rule="nonzero" points="943 445 972 380 901 336"></polygon>
        <polygon id="Shape" stroke="#56B0DC" stroke-width="1.51" fill="#56B0DC" fill-rule="nonzero" points="76 80 63 124 116 104"></polygon>
        <polygon id="Shape" stroke="#60B9DC" stroke-width="1.51" fill="#60B9DC" fill-rule="nonzero" points="22 1 143 -35 38 -101"></polygon>
        <polygon id="Shape" stroke="#5446B4" stroke-width="1.51" fill="#5446B4" fill-rule="nonzero" points="901 336 984 252 896 295"></polygon>
        <polygon id="Shape" stroke="#563EA6" stroke-width="1.51" fill="#563EA6" fill-rule="nonzero" points="972 380 984 252 901 336"></polygon>
        <polygon id="Shape" stroke="#5884D4" stroke-width="1.51" fill="#5884D4" fill-rule="nonzero" points="69 277 110 309 131 245"></polygon>
        <polygon id="Shape" stroke="#598DD6" stroke-width="1.51" fill="#598DD6" fill-rule="nonzero" points="69 277 131 245 107 215"></polygon>
        <polygon id="Shape" stroke="#7176A9" stroke-width="1.51" fill="#7176A9" fill-rule="nonzero" points="229 439 247 478 256 414"></polygon>
        <polygon id="Shape" stroke="#697CBA" stroke-width="1.51" fill="#697CBA" fill-rule="nonzero" points="1004 59 1018 -44 899 -12"></polygon>
        <polygon id="Shape" stroke="#5489D4" stroke-width="1.51" fill="#5489D4" fill-rule="nonzero" points="26 228 69 277 107 215"></polygon>
        <polygon id="Shape" stroke="#647CC0" stroke-width="1.51" fill="#647CC0" fill-rule="nonzero" points="121 438 225 313 110 309"></polygon>
        <polygon id="Shape" stroke="#518ED4" stroke-width="1.51" fill="#518ED4" fill-rule="nonzero" points="10 195 26 228 107 215"></polygon>
        <polygon id="Shape" stroke="#573398" stroke-width="1.51" fill="#573398" fill-rule="nonzero" points="853 505 836 386 797 478"></polygon>
        <polygon id="Shape" stroke="#57389E" stroke-width="1.51" fill="#57389E" fill-rule="nonzero" points="943 445 901 336 836 386"></polygon>
        <polygon id="Shape" stroke="#606FB3" stroke-width="1.51" fill="#606FB3" fill-rule="nonzero" points="69 411 121 438 110 309"></polygon>
        <polygon id="Shape" stroke="#5499D7" stroke-width="1.51" fill="#5499D7" fill-rule="nonzero" points="10 195 107 215 63 124"></polygon>
        <polygon id="Shape" stroke="#4C9DD6" stroke-width="1.51" fill="#4C9DD6" fill-rule="nonzero" points="-32 91 10 195 63 124"></polygon>
        <polygon id="Shape" stroke="#582D8E" stroke-width="1.51" fill="#582D8E" fill-rule="nonzero" points="914 492 943 445 836 386"></polygon>
        <polygon id="Shape" stroke="#572D8E" stroke-width="1.51" fill="#572D8E" fill-rule="nonzero" points="914 492 836 386 853 505"></polygon>
        <polygon id="Shape" stroke="#5879C7" stroke-width="1.51" fill="#5879C7" fill-rule="nonzero" points="47 362 110 309 69 277"></polygon>
        <polygon id="Shape" stroke="#5375C6" stroke-width="1.51" fill="#5375C6" fill-rule="nonzero" points="47 362 69 277 13 301"></polygon>
        <polygon id="Shape" stroke="#4E7DD0" stroke-width="1.51" fill="#4E7DD0" fill-rule="nonzero" points="13 301 69 277 26 228"></polygon>
        <polygon id="Shape" stroke="#4876CE" stroke-width="1.51" fill="#4876CE" fill-rule="nonzero" points="-33 312 13 301 26 228"></polygon>
        <polygon id="Shape" stroke="#497FD0" stroke-width="1.51" fill="#497FD0" fill-rule="nonzero" points="10 195 -33 312 26 228"></polygon>
        <polygon id="Shape" stroke="#4FADD9" stroke-width="1.51" fill="#4FADD9" fill-rule="nonzero" points="22 1 -32 91 76 80"></polygon>
        <polygon id="Shape" stroke="#4AA8D7" stroke-width="1.51" fill="#4AA8D7" fill-rule="nonzero" points="-52 69 -32 91 22 1"></polygon>
        <polygon id="Shape" stroke="#5AB2DA" stroke-width="1.51" fill="#5AB2DA" fill-rule="nonzero" points="-22 -64 22 1 38 -101"></polygon>
        <polygon id="Shape" stroke="#5963A9" stroke-width="1.51" fill="#5963A9" fill-rule="nonzero" points="-7 442 69 411 47 362"></polygon>
        <polygon id="Shape" stroke="#5B70B9" stroke-width="1.51" fill="#5B70B9" fill-rule="nonzero" points="47 362 69 411 110 309"></polygon>
        <polygon id="Shape" stroke="#53ACD8" stroke-width="1.51" fill="#53ACD8" fill-rule="nonzero" points="-22 -64 -39 -2 22 1"></polygon>
        <polygon id="Shape" stroke="#4DA8D7" stroke-width="1.51" fill="#4DA8D7" fill-rule="nonzero" points="-39 -2 -52 69 22 1"></polygon>
        <polygon id="Shape" stroke="#4698D3" stroke-width="1.51" fill="#4698D3" fill-rule="nonzero" points="-32 91 -63 123 10 195"></polygon>
        <polygon id="Shape" stroke="#4F6EC0" stroke-width="1.51" fill="#4F6EC0" fill-rule="nonzero" points="13 301 -33 312 47 362"></polygon>
        <polygon id="Shape" stroke="#61609E" stroke-width="1.51" fill="#61609E" fill-rule="nonzero" points="69 411 53 514 121 438"></polygon>
        <polygon id="Shape" stroke="#4179CD" stroke-width="1.51" fill="#4179CD" fill-rule="nonzero" points="-118 223 -33 312 10 195"></polygon>
        <polygon id="Shape" stroke="#5C5A9B" stroke-width="1.51" fill="#5C5A9B" fill-rule="nonzero" points="-7 442 53 514 69 411"></polygon>
        <polygon id="Shape" stroke="#5264B1" stroke-width="1.51" fill="#5264B1" fill-rule="nonzero" points="-33 312 -7 442 47 362"></polygon>
        <polygon id="Shape" stroke="#4288D0" stroke-width="1.51" fill="#4288D0" fill-rule="nonzero" points="-63 123 -118 223 10 195"></polygon>
    </g>
</svg>